{
  "accessors": [
    {
      "bufferView": 2,
      "componentType": 5126,
      "count": 51561,
      "max": [
        0.9501870274543762,
        1.5668270587921143,
        0.3925110101699829
      ],
      "min": [
        -0.9502419829368591,
        0.0,
        -0.39240801334381104
      ],
      "type": "VEC3"
    },
    {
      "bufferView": 2,
      "byteOffset": 618732,
      "componentType": 5126,
      "count": 51561,
      "max": [
        0.9999977946281433,
        0.9999659061431885,
        1.0
      ],
      "min": [
        -0.9999830722808838,
        -0.9999980926513672,
        -0.9999927878379822
      ],
      "type": "VEC3"
    },
    {
      "bufferView": 3,
      "componentType": 5126,
      "count": 51561,
      "max": [
        0.9999891519546509,
        0.9999958872795105,
        0.999948263168335,
        1.0
      ],
      "min": [
        -0.9999859929084778,
        -0.9999899864196777,
        -0.9999861121177673,
        1.0
      ],
      "type": "VEC4"
    },
    {
      "bufferView": 1,
      "componentType": 5126,
      "count": 51561,
      "max": [
        0.9986159801483154,
        0.9985060095787048
      ],
      "min": [
        0.001383999944664538,
        0.001383999944664538
      ],
      "type": "VEC2"
    },
    {
      "bufferView": 1,
      "byteOffset": 412488,
      "componentType": 5126,
      "count": 51561,
      "max": [
        0.9986159801483154,
        0.9985060095787048
      ],
      "min": [
        0.001383999944664538,
        0.001383999944664538
      ],
      "type": "VEC2"
    },
    {
      "bufferView": 1,
      "byteOffset": 824976,
      "componentType": 5126,
      "count": 51561,
      "max": [
        0.9986159801483154,
        0.9985060095787048
      ],
      "min": [
        0.001383999944664538,
        0.001383999944664538
      ],
      "type": "VEC2"
    },
    {
      "bufferView": 0,
      "componentType": 5125,
      "count": 120000,
      "type": "SCALAR"
    }
  ],
  "asset": {
    "extras": {
      "author": "mohamedhussien (https://sketchfab.com/mohamedhussien)",
      "license": "CC-BY-4.0 (http://creativecommons.org/licenses/by/4.0/)",
      "source": "https://sketchfab.com/3d-models/source-d537f7bc431f4d0c96ae465c283e5716",
      "title": "Source"
    },
    "generator": "Sketchfab-16.64.0",
    "version": "2.0"
  },
  "bufferViews": [
    {
      "buffer": 0,
      "byteLength": 480000,
      "name": "floatBufferViews",
      "target": 34963
    },
    {
      "buffer": 0,
      "byteLength": 1237464,
      "byteOffset": 480000,
      "byteStride": 8,
      "name": "floatBufferViews",
      "target": 34962
    },
    {
      "buffer": 0,
      "byteLength": 1237464,
      "byteOffset": 1717464,
      "byteStride": 12,
      "name": "floatBufferViews",
      "target": 34962
    },
    {
      "buffer": 0,
      "byteLength": 824976,
      "byteOffset": 2954928,
      "byteStride": 16,
      "name": "floatBufferViews",
      "target": 34962
    }
  ],
  "buffers": [
    {
      "byteLength": 3779904,
      "uri": "scene.bin"
    }
  ],
  "images": [
    {
      "uri": "textures/Material.034_baseColor.jpeg"
    },
    {
      "uri": "textures/Material.034_metallicRoughness.png"
    },
    {
      "uri": "textures/Material.034_normal.png"
    }
  ],
  "materials": [
    {
      "doubleSided": true,
      "name": "Material.034",
      "normalTexture": {
        "index": 2
      },
      "pbrMetallicRoughness": {
        "baseColorTexture": {
          "index": 0
        },
        "metallicRoughnessTexture": {
          "index": 1
        }
      }
    }
  ],
  "meshes": [
    {
      "name": "model_Material.034_0",
      "primitives": [
        {
          "attributes": {
            "NORMAL": 1,
            "POSITION": 0,
            "TANGENT": 2,
            "TEXCOORD_0": 3,
            "TEXCOORD_1": 4,
            "TEXCOORD_2": 5
          },
          "indices": 6,
          "material": 0,
          "mode": 4
        }
      ]
    }
  ],
  "nodes": [
    {
      "children": [
        1
      ],
      "matrix": [
        1.0,
        0.0,
        0.0,
        0.0,
        0.0,
        2.220446049250313e-16,
        -1.0,
        0.0,
        0.0,
        1.0,
        2.220446049250313e-16,
        0.0,
        0.0,
        0.0,
        0.0,
        1.0
      ],
      "name": "Sketchfab_model"
    },
    {
      "children": [
        2
      ],
      "matrix": [
        0.009999999776482582,
        0.0,
        0.0,
        0.0,
        0.0,
        0.0,
        0.009999999776482582,
        0.0,
        0.0,
        -0.009999999776482582,
        0.0,
        0.0,
        0.0,
        0.0,
        0.0,
        1.0
      ],
      "name": "Source.fbx"
    },
    {
      "children": [
        3
      ],
      "name": "RootNode"
    },
    {
      "children": [
        4
      ],
      "matrix": [
        100.0,
        0.0,
        0.0,
        0.0,
        0.0,
        99.99999999999972,
        -7.5497901264043296e-06,
        0.0,
        0.0,
        7.5497901264043296e-06,
        99.99999999999972,
        0.0,
        0.0,
        0.0,
        0.0,
        1.0
      ],
      "name": "model"
    },
    {
      "mesh": 0,
      "name": "model_Material.034_0"
    }
  ],
  "samplers": [
    {
      "magFilter": 9729,
      "minFilter": 9987,
      "wrapS": 10497,
      "wrapT": 10497
    }
  ],
  "scene": 0,
  "scenes": [
    {
      "name": "Sketchfab_Scene",
      "nodes": [
        0
      ]
    }
  ],
  "textures": [
    {
      "sampler": 0,
      "source": 0
    },
    {
      "sampler": 0,
      "source": 1
    },
    {
      "sampler": 0,
      "source": 2
    }
  ]
}
